<svg width="90" height="22" viewBox="0 0 90 22" fill="none" xmlns="http://www.w3.org/2000/svg">
<g opacity="0.7">
<path fill-rule="evenodd" clip-rule="evenodd" d="M12.3199 0.293457V17.8935H10.2666V13.9335H6.45327L4.77788 17.8935H2.57788L10.024 0.293457H12.3199ZM10.4134 11.1468H7.33338L8.94671 7.33344L10.4134 3.86678V11.1468Z" fill="white"/>
<path fill-rule="evenodd" clip-rule="evenodd" d="M38.1333 0.880127L13.6025 0.880161V2.49349H37.204L38.1333 0.880127ZM89.4663 0.880127C88.8797 4.69348 87.5598 7.48016 85.7998 7.48016H83.1591C83.1318 9.8021 82.4591 10.8068 82.1578 11.2569L82.1333 11.2935C81.84 11.7335 81.1066 12.3202 80.0801 12.3202H78.1264C78.1264 14.5417 77.5113 15.4488 77.1968 15.9126C77.1791 15.9387 77.1623 15.9634 77.1467 15.9868C76.8081 16.4947 75.9734 17.1602 74.5067 17.1602H73.1388C73.1169 19.4032 72.5938 20.3961 72.3067 20.8268C71.9681 21.3347 71.2003 22.0002 69.96 22.0002H0L1.46667 20.3868H70.1067C71.1103 20.3868 71.8336 19.2656 71.8656 17.1602H64.9734L65.7069 15.5468H74.6536C75.6803 15.5468 76.8536 14.5202 76.8536 12.3202H66.88L67.6135 10.7068H79.7867C81.0022 10.7068 81.9484 9.86143 81.9855 7.48016H68.7201L69.3731 5.86679H85.3598C86.3864 5.86679 87.4131 4.25349 87.6572 2.49349H52.7998L53.4529 0.880161L87.853 0.880127H89.4663Z" fill="white"/>
<path fill-rule="evenodd" clip-rule="evenodd" d="M20.9862 12.6889C21.2989 10.9736 22.3901 4.98684 18.9199 4.98682C15.2532 4.98679 14.2266 11.4402 14.2266 12.7602C14.2265 16.4983 14.6817 18.0411 17.0132 18.0402C19.6532 18.0391 20.3866 14.6668 20.3866 14.6668L18.7732 14.0802C18.7732 14.0802 17.8932 16.4268 16.8666 15.8402C15.9559 15.3198 15.9684 14.3378 15.9828 13.2014C15.9847 13.0566 15.9866 12.9093 15.9866 12.7602H20.9732C20.9774 12.7373 20.9817 12.7135 20.9862 12.6889ZM17.9102 10.8581C18.5754 10.8606 19.2674 10.8632 19.8008 10.8632C19.8008 10.7448 19.8017 10.6216 19.8027 10.4953C19.8138 9.05572 19.8281 7.19656 18.479 7.19656C17.3066 7.19656 16.2799 9.68017 16.2799 10.8536C16.7028 10.8536 17.2951 10.8558 17.9102 10.8581Z" fill="white"/>
<path fill-rule="evenodd" clip-rule="evenodd" d="M34.7591 12.6132C35.0525 10.9998 35.7858 4.83987 32.2658 4.83984C28.5991 4.83982 27.4258 11.2932 27.4258 12.6132C27.4257 16.3513 28.0276 17.8941 30.3591 17.8932C32.9991 17.8921 34.4658 14.2265 34.7591 12.6132ZM32.8525 12.1732C33.2925 10.7065 33.7325 7.77318 32.2659 7.33318C30.6641 6.85266 29.5178 10.1198 29.3325 11.2932C28.8925 14.0798 29.1997 15.4612 30.3592 15.6932C31.6792 15.9573 32.4125 13.6398 32.8525 12.1732Z" fill="white"/>
<path d="M41.5069 2.78667C42.6802 2.78667 43.2669 4.10667 43.2669 5.28H45.1735C45.1735 3.66667 45.3202 2.24493e-05 41.8002 0C38.1335 0.293333 37.6935 4.84 37.6935 6.16C37.6935 6.6 37.6935 8.50667 39.7469 10.12C40.4935 10.7067 41.6535 11.44 41.6535 12.6133C41.5069 13.7867 41.2134 15.1067 39.4534 15.1067C37.6934 15.1067 37.8402 13.9333 37.8402 12.0267H35.7869V14.6667C35.7869 17.6 37.6935 17.8933 39.4534 17.8933C42.5285 17.8933 43.3795 14.3849 43.5593 13.6436L43.5602 13.64C43.9123 12.1885 43.7069 10.5862 43.4135 9.68C42.7014 7.48 39.2335 7.04 39.8935 4.4C40.1869 3.22667 40.9202 2.78667 41.5069 2.78667Z" fill="white"/>
<path d="M27.7191 4.84001C28.0945 4.92186 28.1812 5.00789 28.4525 5.28C28.1591 6.16001 27.8658 6.89334 27.4258 7.92C26.5458 7.48001 25.2258 8.21334 24.2725 11.5133L22.8791 17.8933H21.1191L23.9058 5.13333H25.6658C25.6658 5.13333 25.2177 7.34681 25.2258 7.33333C25.6659 6.60005 26.4127 4.55515 27.7191 4.84001Z" fill="white"/>
<path d="M61.0404 5.27995H59.2785L56.6133 17.8933H58.3733L60.2208 10.2666C60.5733 8.79993 61.7466 7.33327 62.48 7.33327C63.1446 7.33327 63.36 8.21327 63.237 8.65327L61.3066 17.8933L63.0666 17.8933L65.1719 8.65327C65.4133 7.03993 65.1719 6.15993 65.1719 6.15993C64.9733 5.27995 64.5489 4.9751 63.6534 4.83995C62.3024 4.63605 60.731 6.93676 60.7199 6.89329L61.0404 5.27995Z" fill="white"/>
<path fill-rule="evenodd" clip-rule="evenodd" d="M50.7459 8.35985L52.6526 8.35985C52.6526 8.35985 52.946 7.18653 53.8259 7.18652C54.7059 7.18651 54.8526 7.77319 54.8526 8.50652C54.8526 9.23985 54.706 9.5332 54.266 9.82652C53.8551 10.0026 53.3824 10.0733 52.8939 10.1462C52.1619 10.2556 51.3944 10.3703 50.7459 10.8532C50.1923 11.2654 49.2793 12.6132 49.2793 14.8132C49.2793 15.9865 49.4109 17.8932 50.8926 17.8932C51.8001 17.8932 52.2493 17.4348 52.949 16.7206C53.0409 16.6268 53.1371 16.5286 53.2392 16.4265C53.2393 16.8054 53.2393 17.0619 53.2392 17.3541C53.2392 17.5143 53.2392 17.6854 53.2392 17.8932H55.146C55.1459 17.0132 55.1459 16.6417 55.1459 15.8398C55.1459 15.3572 55.5562 13.6394 55.9436 12.017C56.2626 10.6812 56.5662 9.41012 56.6126 8.94651C56.6164 8.90794 56.6212 8.86377 56.6266 8.81462C56.7341 7.82896 57.06 4.83984 54.2659 4.83984C52.2126 4.83984 51.0393 6.74652 50.7459 8.35985ZM53.9727 11.8798C52.946 12.0265 51.5453 12.3198 51.186 13.1998C50.7069 14.3732 50.8927 15.4928 51.626 15.6932C52.1627 15.8398 52.9255 15.2532 53.2393 14.8132C53.7119 14.1504 53.9727 12.7598 53.9727 11.8798Z" fill="white"/>
<path d="M48.1077 15.6935C46.7877 15.8402 46.9344 15.2535 47.2277 13.7869L48.573 7.62686H49.6486L50.1611 5.28019H49.0855L50.0144 1.02686L47.8144 3.22685L47.366 5.28019H46.3477L45.7611 7.62686H46.8535L45.2519 14.9602C45.1744 15.4002 44.5877 17.8935 46.9344 17.8935C47.6677 17.8935 47.8144 17.4535 48.1077 15.6935Z" fill="white"/>
</g>
</svg>
